<svg width="24" height="24" viewBox="0 0 24 24" fill="none" xmlns="http://www.w3.org/2000/svg">
<path d="M12 14.1818L9.81818 12L12 9.81818L14.1818 12L12 14.1818ZM9.68182 7.77273L6.95455 5.04545L12 0L17.0455 5.04545L14.3182 7.77273L12 5.45455L9.68182 7.77273ZM5.04545 17.0455L0 12L5.04545 6.95455L7.77273 9.68182L5.45455 12L7.77273 14.3182L5.04545 17.0455ZM18.9545 17.0455L16.2273 14.3182L18.5455 12L16.2273 9.68182L18.9545 6.95455L24 12L18.9545 17.0455ZM12 24L6.95455 18.9545L9.68182 16.2273L12 18.5455L14.3182 16.2273L17.0455 18.9545L12 24Z" fill="#EE0DE5"/>
</svg>
