<svg width="24" height="24" viewBox="0 0 24 24" fill="none" xmlns="http://www.w3.org/2000/svg">
<path d="M11.3 8.9L9.2 6.8C9 6.6 8.9 6.36667 8.9 6.1C8.9 5.83333 9 5.6 9.2 5.4L11.3 3.3C11.5 3.1 11.7333 3 12 3C12.2667 3 12.5 3.1 12.7 3.3L14.8 5.4C15 5.6 15.1 5.83333 15.1 6.1C15.1 6.36667 15 6.6 14.8 6.8L12.7 8.9C12.5 9.1 12.2667 9.2 12 9.2C11.7333 9.2 11.5 9.1 11.3 8.9ZM2 20.6C1.71667 20.6 1.47917 20.5042 1.2875 20.3125C1.09583 20.1208 1 19.8833 1 19.6V16.6C1 16.0333 1.19583 15.5583 1.5875 15.175C1.97917 14.7917 2.45 14.6 3 14.6H6.275C6.60833 14.6 6.925 14.6833 7.225 14.85C7.525 15.0167 7.76667 15.2417 7.95 15.525C8.43333 16.175 9.02917 16.6833 9.7375 17.05C10.4458 17.4167 11.2 17.6 12 17.6C12.8167 17.6 13.5792 17.4167 14.2875 17.05C14.9958 16.6833 15.5833 16.175 16.05 15.525C16.2667 15.2417 16.5208 15.0167 16.8125 14.85C17.1042 14.6833 17.4083 14.6 17.725 14.6H21C21.5667 14.6 22.0417 14.7917 22.425 15.175C22.8083 15.5583 23 16.0333 23 16.6V19.6C23 19.8833 22.9042 20.1208 22.7125 20.3125C22.5208 20.5042 22.2833 20.6 22 20.6H17C16.7167 20.6 16.4792 20.5042 16.2875 20.3125C16.0958 20.1208 16 19.8833 16 19.6V18.325C15.4167 18.7417 14.7875 19.0583 14.1125 19.275C13.4375 19.4917 12.7333 19.6 12 19.6C11.2833 19.6 10.5833 19.4875 9.9 19.2625C9.21667 19.0375 8.58333 18.7167 8 18.3V19.6C8 19.8833 7.90417 20.1208 7.7125 20.3125C7.52083 20.5042 7.28333 20.6 7 20.6H2ZM4 13.6C3.16667 13.6 2.45833 13.3083 1.875 12.725C1.29167 12.1417 1 11.4333 1 10.6C1 9.75 1.29167 9.0375 1.875 8.4625C2.45833 7.8875 3.16667 7.6 4 7.6C4.85 7.6 5.5625 7.8875 6.1375 8.4625C6.7125 9.0375 7 9.75 7 10.6C7 11.4333 6.7125 12.1417 6.1375 12.725C5.5625 13.3083 4.85 13.6 4 13.6ZM20 13.6C19.1667 13.6 18.4583 13.3083 17.875 12.725C17.2917 12.1417 17 11.4333 17 10.6C17 9.75 17.2917 9.0375 17.875 8.4625C18.4583 7.8875 19.1667 7.6 20 7.6C20.85 7.6 21.5625 7.8875 22.1375 8.4625C22.7125 9.0375 23 9.75 23 10.6C23 11.4333 22.7125 12.1417 22.1375 12.725C21.5625 13.3083 20.85 13.6 20 13.6Z" fill="#003CF0"/>
</svg>
