<svg width="112" height="39" viewBox="0 0 112 39" fill="none" xmlns="http://www.w3.org/2000/svg">
<path d="M16.6844 36.9265C25.8989 36.9265 33.3688 29.1241 33.3688 19.4994C33.3688 9.87466 25.8989 2.07227 16.6844 2.07227C7.46985 2.07227 0 9.87466 0 19.4994C0 29.1241 7.46985 36.9265 16.6844 36.9265Z" fill="white"/>
<path d="M18.1467 7.48242L22.8848 10.339L15.2803 14.9253V9.21121L18.1467 7.48242Z" fill="#121212"/>
<path d="M10.4844 21.3652L15.2041 24.2108L15.2804 24.2575L22.5929 28.667L17.8617 31.5199L15.2804 29.9634L10.4844 27.0711V21.3652Z" fill="#121212"/>
<path d="M10.4844 12.125L15.2041 14.9706L15.2804 15.0164L22.8639 19.5898L18.1328 22.4428L15.2804 24.1633V20.7231L10.4844 17.8308V12.125Z" fill="#121212"/>
<path d="M69.9077 12.2831V3.97266H74.6037V27.7488H70.0568V25.9055C68.7806 27.4263 67.1553 28.1858 65.1809 28.1858C62.8873 28.1858 60.9629 27.3319 59.4078 25.6242C57.872 23.8954 57.1045 21.7498 57.1045 19.1882C57.1045 16.6266 57.872 14.5121 59.4078 12.7833C60.9629 11.0545 62.8873 10.1906 65.1809 10.1906C67.0553 10.1906 68.6306 10.8887 69.9068 12.284L69.9077 12.2831ZM70.1471 19.157C70.1471 17.8872 69.748 16.8245 68.9507 15.9706C68.1727 15.0957 67.1755 14.6587 65.9598 14.6587C64.7441 14.6587 63.7363 15.0957 62.939 15.9706C62.161 16.8456 61.7725 17.9074 61.7725 19.157C61.7725 20.4067 62.161 21.5317 62.939 22.4066C63.7363 23.2816 64.7432 23.7186 65.9598 23.7186C67.1763 23.7186 68.1736 23.2816 68.9507 22.4066C69.748 21.5528 70.1471 20.4699 70.1471 19.157Z" fill="white"/>
<path d="M89.1942 12.3151V10.6275H93.4719V26.062C93.4719 28.8315 92.6044 31.0083 90.8695 32.5914C89.174 34.2158 86.9813 35.0284 84.2885 35.0284C81.4169 35.0284 78.8645 34.1736 76.6314 32.4668L78.4259 28.8425C80.3003 30.1755 82.1949 30.8425 84.1087 30.8425C85.6244 30.8425 86.8155 30.4311 87.6829 29.6084C88.5504 28.7857 88.9846 27.7294 88.9846 26.4376V25.7816C87.768 27.1147 86.1524 27.7816 84.1385 27.7816C81.7256 27.7816 79.7609 26.9589 78.2461 25.3135C76.7305 23.6681 75.9727 21.5747 75.9727 19.0332C75.9727 16.4918 76.77 14.326 78.3654 12.6595C79.9609 10.993 81.9247 10.1914 84.3175 10.1914C86.2717 10.1914 87.897 10.8996 89.1933 12.316L89.1942 12.3151ZM89.0442 19.0635C89.0442 17.7928 88.6504 16.7465 87.8628 15.9238C87.0751 15.1011 86.0831 14.6897 84.8867 14.6897C83.6903 14.6897 82.6931 15.1066 81.8958 15.9394C81.0976 16.752 80.6994 17.7937 80.6994 19.0635C80.6994 20.3333 81.0985 21.4171 81.8958 22.2499C82.7132 23.1046 83.7105 23.5306 84.8867 23.5306C86.0629 23.5306 87.0707 23.1138 87.8478 22.281C88.6451 21.4482 89.0442 20.3754 89.0442 19.0626V19.0635Z" fill="white"/>
<path d="M111.847 20.8399C111.947 20.2939 111.999 19.7304 111.999 19.1533C111.999 18.5339 111.939 17.9284 111.824 17.3429C111.023 13.2624 107.564 10.1914 103.419 10.1914C99.2734 10.1914 95.8159 13.2624 95.0133 17.3429C94.8984 17.9284 94.8379 18.5339 94.8379 19.1533C94.8379 19.7304 94.8905 20.2939 94.9905 20.8399C95.7457 24.9837 99.2331 28.1151 103.419 28.1151C105.833 28.1151 108.013 27.0743 109.572 25.3987L106.996 22.325C106.125 23.3969 104.825 24.0748 103.373 24.0748C101.329 24.0748 99.5866 22.729 98.9112 20.839H111.847V20.8399ZM98.9217 17.342C99.6024 15.4666 101.339 14.1327 103.373 14.1327C105.407 14.1327 107.142 15.4657 107.823 17.342H98.9217Z" fill="white"/>
<path d="M55.5851 20.8399C55.6851 20.2939 55.7377 19.7304 55.7377 19.1533C55.7377 18.5339 55.6772 17.9284 55.5623 17.3429C54.7615 13.2624 51.3022 10.1914 47.1569 10.1914C43.0117 10.1914 39.5541 13.2624 38.7516 17.3429C38.6367 17.9284 38.5762 18.5339 38.5762 19.1533C38.5762 19.7304 38.6288 20.2939 38.7288 20.8399C39.484 24.9837 42.9714 28.1151 47.1569 28.1151C49.5716 28.1151 51.7512 27.0743 53.3107 25.3987L50.7347 22.325C49.8628 23.3969 48.5629 24.0748 47.1113 24.0748C45.0677 24.0748 43.3248 22.729 42.6495 20.839H55.5851V20.8399ZM42.66 17.342C43.3406 15.4666 45.0773 14.1327 47.1113 14.1327C49.1453 14.1327 50.8803 15.4657 51.5609 17.342H42.66Z" fill="white"/>
</svg>
