<svg width="304" height="425" viewBox="0 0 304 425" fill="none" xmlns="http://www.w3.org/2000/svg">
<path d="M78.8884 197.476L48.5974 209.952C50.1667 210.375 51.7121 210.856 53.27 211.303L57.8843 212.768C60.965 213.74 64.0218 214.805 67.0673 215.869C70.1122 216.957 73.1577 218.044 76.1681 219.223C79.1324 220.367 82.1081 221.535 85.0253 222.805C86.6525 212.527 89.0936 201.551 92.29 198.999L78.8884 197.476Z" fill="black"/>
<path d="M48.5952 209.95V231.148C54.1976 233.711 66.7513 237.763 82.5941 242.41C82.5941 242.41 83.4193 232.956 85.0232 222.827C81.9431 221.98 78.8862 221.03 75.864 220.045C72.7839 219.073 69.7265 218.008 66.6815 216.944C63.636 215.856 60.5905 214.769 57.5802 213.59L53.0704 211.827C51.5823 211.198 50.0715 210.614 48.5952 209.95Z" fill="black"/>
<path d="M265.965 221.161C264.814 220.818 263.687 220.44 262.571 219.994L264.117 226.037C265.621 224.578 267.216 223.213 268.894 221.951C267.918 221.711 266.93 221.459 265.965 221.161Z" fill="black"/>
<path d="M163.087 244.299C179.256 241.735 223.483 227.565 231.445 221.602C237.303 217.207 244.01 210.008 244.882 192.839C246.16 200.657 247.473 208.474 248.822 216.291L248.868 216.566C247.879 216.017 246.814 215.612 245.707 215.364C244.463 215.052 243.173 214.951 241.894 215.067C242.984 215.735 244.184 216.211 245.44 216.475C246.571 216.755 247.739 216.863 248.904 216.795L252.077 234.936C249.182 236.871 246.312 238.816 243.476 240.819L239.012 243.955L234.583 247.149C231.631 249.278 228.667 251.384 225.761 253.581C222.855 255.767 219.915 257.896 217.032 260.128L217.02 260.14C216.956 260.198 216.912 260.273 216.892 260.357C214.661 259.728 212.405 259.144 210.162 258.537L202.991 256.729C198.202 255.538 193.401 254.44 188.612 253.295C183.789 252.231 178.988 251.12 174.164 250.113C169.34 249.095 164.517 248.099 159.658 247.229C164.4 248.557 169.189 249.77 173.967 250.96C178.744 252.162 183.556 253.249 188.345 254.405C193.157 255.458 197.958 256.569 202.781 257.587L210.023 259.087C212.313 259.521 214.591 259.979 216.88 260.391C216.88 260.403 216.857 260.414 216.857 260.426C216.439 265.038 216.044 269.651 215.765 274.275C216.497 269.765 217.113 265.244 217.706 260.712C220.647 258.663 223.518 256.534 226.423 254.451C229.388 252.345 232.294 250.148 235.211 247.984L239.593 244.722L243.917 241.403C246.672 239.309 249.392 237.157 252.088 234.982L253.018 240.316C253.042 240.445 253.116 240.559 253.225 240.634C253.334 240.709 253.469 240.739 253.6 240.716C253.628 240.714 253.656 240.706 253.681 240.693L266.28 236.378C266.407 236.331 266.513 236.24 266.577 236.122C266.641 236.005 266.66 235.868 266.63 235.738L264.165 226.192C266.318 225.033 268.384 223.725 270.349 222.278C271.895 223.376 273.418 224.487 274.975 225.574C276.672 226.73 278.346 227.92 280.066 229.065C278.485 227.749 276.881 226.467 275.277 225.173C273.789 223.971 272.278 222.804 270.768 221.625C270.756 221.541 270.728 221.459 270.686 221.385C271.581 217.997 272.372 214.586 273.197 211.175C274.068 207.65 274.871 204.102 275.649 200.554C276.463 197.006 277.242 193.458 277.962 189.887C278.718 186.327 279.415 182.767 280.066 179.185C279.066 182.687 278.113 186.201 277.23 189.726C276.3 193.24 275.44 196.777 274.603 200.313C273.743 203.85 272.906 207.387 272.139 210.935C271.383 214.3 270.616 217.665 269.919 221.041C268.675 220.755 267.432 220.492 266.176 220.275C264.967 220.069 263.758 219.908 262.526 219.805L261.166 214.552L255.634 193.366L255.622 193.332V193.32C254.927 191.469 254.38 189.567 253.983 187.632C253.529 185.749 253.541 183.786 254.018 181.909C254.31 181.017 254.839 180.218 255.552 179.597C255.927 179.288 256.323 179.005 256.738 178.75L257.389 178.327L257.726 178.052C257.772 178.04 257.807 178.006 257.935 177.96C259.886 177.523 261.868 177.236 263.863 177.102C271.953 176.381 280.078 175.957 288.191 175.522C284.135 175.58 280.066 175.694 275.998 175.843C271.93 175.992 267.873 176.152 263.805 176.461C262.793 176.541 261.771 176.633 260.759 176.747C259.714 176.827 258.679 177.003 257.668 177.274C257.5 177.326 257.342 177.408 257.202 177.514L256.947 177.72L256.319 178.109C255.867 178.374 255.436 178.673 255.029 179.002C254.196 179.703 253.569 180.612 253.216 181.634C252.66 183.644 252.6 185.755 253.042 187.792C253.418 189.779 253.963 191.732 254.669 193.629L260.086 214.815L265.455 235.532L253.902 239.56L249.473 216.177C247.973 208.371 246.443 200.569 244.882 192.771C245.14 185.259 244.602 177.74 243.277 170.338L264.56 168.14C266.705 167.946 268.735 167.103 270.372 165.725C272.114 165.474 273.841 165.13 275.545 164.695C275.986 164.592 276.428 164.477 276.87 164.34C277.091 164.271 277.311 164.203 277.544 164.123C277.57 164.111 277.597 164.103 277.625 164.1H277.66C277.739 164.108 277.817 164.123 277.893 164.145C278.713 164.398 279.507 164.728 280.264 165.13C281.868 165.897 283.448 166.744 285.052 167.545C286.645 168.38 288.273 169.17 289.923 169.925C287.089 167.674 284.023 165.722 280.775 164.1C279.927 163.676 279.04 163.335 278.125 163.081C277.976 163.052 277.824 163.037 277.672 163.035C277.489 163.046 277.308 163.084 277.137 163.15C276.951 163.241 276.742 163.31 276.544 163.39L275.277 163.848C273.661 164.409 272.046 165.004 270.442 165.656C272.127 164.077 273.336 161.524 272.627 157.358L271.546 129.099L275.905 128.218C275.905 128.218 279.113 128.927 272.778 110.912L262.654 82.2407C262.654 82.2407 302.418 87.0708 303.859 88.49C305.301 89.9093 295.502 185.549 281.949 231.239C281.949 231.239 220.275 274.664 216.532 276.083C214.707 276.759 180.522 268.689 143.176 258.995C143.176 258.995 146.93 246.863 163.087 244.299ZM293.433 109.962C294.375 104.331 295.281 98.6994 296.072 93.0453C294.817 98.6193 293.677 104.216 292.562 109.813C291.445 115.41 290.423 121.03 289.353 126.638C288.377 132.258 287.342 137.878 286.413 143.509L285.03 151.956C284.611 154.783 284.158 157.598 283.774 160.425C284.413 157.644 284.983 154.851 285.599 152.059L287.296 143.658C288.412 138.061 289.423 132.441 290.492 126.833C291.469 121.213 292.503 115.605 293.433 109.962Z" fill="black"/>
<path d="M185.974 43.6475C188.09 43.6475 190.787 44.7807 193.472 45.3529C196.157 45.9252 202.305 44.7807 202.886 43.0867C203.467 41.3813 207.094 27.3261 207.687 27.99C208.268 28.6538 209.419 29.8327 209.419 29.8327C209.419 29.8327 209.616 46.9553 209.233 48.7981C208.838 50.6522 201.736 59.9232 191.17 58.9732C180.604 58.0232 179.058 45.7306 179.058 45.7306C179.058 45.7306 183.87 43.6475 185.974 43.6475ZM184.231 48.7294C185.007 49.2 185.914 49.4164 186.823 49.3475C187.706 49.281 188.561 49.0147 189.322 48.5691C190.062 48.1469 190.694 47.5636 191.17 46.8637C189.79 47.5672 188.295 48.0245 186.753 48.2143C186.031 48.2676 185.306 48.1701 184.626 47.9282C183.889 47.6466 183.184 47.2899 182.522 46.8637C182.892 47.6381 183.487 48.2872 184.231 48.7294Z" fill="black"/>
<path d="M209.419 29.8385C209.419 29.8385 199.812 20.9462 200.58 9.97266C200.58 9.97266 198.082 7.70228 194.048 11.4862C194.048 11.4862 190.589 12.4322 186.554 8.26987C182.519 4.10751 180.406 10.1618 180.406 10.1618C180.406 10.1618 178.292 16.5946 177.716 14.8918C177.139 13.189 176.179 5.05348 184.825 2.40471C191.548 0.432507 198.577 -0.336453 205.576 0.134336C207.882 0.512727 212.685 4.29668 212.685 9.59423C212.685 14.8918 214.991 21.5137 214.799 23.5949C214.606 25.6761 209.419 29.8385 209.419 29.8385Z" fill="black"/>
<path d="M200.776 27.5687C198.912 26.8676 196.912 26.5916 194.924 26.7614C193.925 26.846 192.94 27.0574 191.995 27.3904C191.056 27.7307 190.189 28.2403 189.44 28.8931C190.326 28.5155 191.242 28.2096 192.178 27.9785C193.105 27.7693 194.045 27.625 194.992 27.5465C196.918 27.4169 198.851 27.4244 200.776 27.5687Z" fill="black"/>
<path d="M184.444 27.9927C183.674 27.1615 182.725 26.5096 181.667 26.0844C180.617 25.5954 179.435 25.4526 178.296 25.6772C179.335 26.0034 180.357 26.3818 181.357 26.8109C182.359 27.2161 183.345 27.6569 184.444 27.9927Z" fill="black"/>
<path d="M193.471 31.5905C193.16 31.58 192.865 31.4507 192.648 31.2301C192.432 31.0095 192.311 30.7148 192.311 30.408C192.311 30.1013 192.432 29.8066 192.648 29.586C192.865 29.3654 193.16 29.2361 193.471 29.2256C193.782 29.2361 194.077 29.3654 194.294 29.586C194.51 29.8066 194.631 30.1013 194.631 30.408C194.631 30.7148 194.51 31.0095 194.294 31.2301C194.077 31.4507 193.782 31.58 193.471 31.5905Z" fill="black"/>
<path d="M181.175 30.8343C180.863 30.8238 180.569 30.6945 180.352 30.4739C180.136 30.2533 180.015 29.9586 180.015 29.6519C180.015 29.3451 180.136 29.0504 180.352 28.8298C180.569 28.6092 180.863 28.48 181.175 28.4694C181.486 28.48 181.781 28.6092 181.998 28.8298C182.214 29.0504 182.335 29.3451 182.335 29.6519C182.335 29.9586 182.214 30.2533 181.998 30.4739C181.781 30.6945 181.486 30.8238 181.175 30.8343Z" fill="black"/>
<path d="M214.799 23.5942C215.219 23.7661 215.595 24.0287 215.898 24.3626C216.201 24.6966 216.424 25.0934 216.55 25.5237C216.793 26.3738 216.791 27.2734 216.546 28.1227C215.987 29.86 215.327 31.5646 214.571 33.228C213.895 34.9671 213.362 36.7568 212.977 38.5798C212.821 39.4356 212.391 40.2198 211.75 40.8176C211.407 41.1111 211.005 41.3297 210.57 41.459C210.136 41.5884 209.678 41.6255 209.227 41.568C209.694 41.7021 210.185 41.7313 210.664 41.6535C211.144 41.5756 211.599 41.3927 211.997 41.1182C212.781 40.5021 213.338 39.6495 213.582 38.6916C214.051 36.9289 214.632 35.1967 215.319 33.5051C215.64 32.6453 215.966 31.7871 216.315 30.9364C216.699 30.0713 216.978 29.1649 217.148 28.2358C217.342 27.2844 217.262 26.2984 216.916 25.3896C216.732 24.9471 216.444 24.5538 216.077 24.2418C215.709 23.9298 215.271 23.7079 214.799 23.5942Z" fill="black"/>
<path d="M183.481 36.4592C183.023 37.6562 183.037 38.9791 183.521 40.1663C183.788 40.8017 184.283 41.3177 184.913 41.615C185.532 41.8587 186.221 41.8645 186.844 41.6313C186.266 41.5586 185.71 41.3688 185.21 41.074C184.783 40.7593 184.452 40.3352 184.253 39.8481C183.852 38.7548 183.593 37.6162 183.481 36.4592Z" fill="black"/>
<path d="M177.715 14.8912C177.878 17.4892 177.883 20.0944 177.731 22.693C177.651 23.9816 177.5 25.265 177.279 26.5376C177.046 27.786 176.676 29.065 176.454 30.3692C176.002 32.9884 176.032 35.6661 176.54 38.2752C177.092 40.8457 177.938 43.3467 179.06 45.7305C178.233 43.2613 177.594 40.735 177.147 38.1725C176.744 35.6272 176.776 33.0334 177.243 30.4987C177.435 29.224 177.772 27.9804 177.996 26.6584C178.214 25.3559 178.331 24.0388 178.343 22.7188C178.394 20.0956 178.183 17.4739 177.715 14.8912Z" fill="black"/>
<path d="M209.227 48.7966C209.386 50.3103 209.959 51.7532 210.884 52.9719C211.356 53.591 211.934 54.1238 212.593 54.5462C213.26 54.9524 214.026 55.1739 214.81 55.1872C214.145 54.8905 213.522 54.5074 212.96 54.0483C212.431 53.5792 211.95 53.0599 211.524 52.4979C211.089 51.9268 210.69 51.3311 210.326 50.7139C209.961 50.0891 209.585 49.4583 209.227 48.7966Z" fill="black"/>
<path d="M209.98 50.825C215.819 51.9928 221.533 53.7013 227.046 55.9278C229.904 56.9494 232.892 57.5749 235.925 57.7862C238.872 57.9555 241.807 58.2876 244.716 58.7809C245.372 58.9218 246.002 59.1631 246.582 59.4961C247.249 59.903 247.952 60.2493 248.683 60.5308C250.012 61.0167 251.236 61.7444 252.292 62.676C254.307 64.7407 255.964 67.1177 257.195 69.712C257.894 70.9916 258.451 72.3478 259.065 73.6762C259.62 75.0314 260.177 76.3886 260.698 77.7605C261.189 79.1436 261.709 80.5178 262.177 81.9107L263.511 86.1131L263.514 86.1233L263.519 86.1393C266.298 92.9858 268.824 99.9274 271.095 106.964C272.221 110.479 273.284 114.014 274.191 117.578C274.639 119.36 275.062 121.147 275.378 122.937C275.538 123.821 275.649 124.713 275.709 125.609C275.735 126.033 275.728 126.458 275.688 126.882C275.679 127.178 275.588 127.467 275.426 127.717L275.756 127.55C269.154 128.828 262.548 130.102 255.932 131.305L246.016 133.126L241.054 133.951C239.443 134.227 237.82 134.423 236.189 134.538L235.707 134.543C235.706 134.517 235.719 134.546 235.689 134.528C235.657 134.495 235.62 134.467 235.58 134.443C235.359 134.191 235.176 133.91 235.034 133.608C234.696 132.898 234.416 132.163 234.198 131.409C233.752 129.84 233.395 128.247 233.129 126.639C232.569 123.403 232.27 120.115 232.039 116.825C231.829 113.532 231.76 110.231 231.834 106.923C231.883 103.617 232.082 100.311 232.459 97.0177C232.461 96.9975 232.455 96.9773 232.442 96.9613C232.429 96.9454 232.411 96.9349 232.39 96.932C232.37 96.9292 232.349 96.9341 232.332 96.9459C232.315 96.9578 232.304 96.9755 232.3 96.9954C231.737 100.268 231.348 103.574 231.111 106.892C230.904 110.213 230.843 113.54 230.928 116.874C231.011 120.212 231.289 123.543 231.761 126.85C231.996 128.521 232.327 130.177 232.751 131.81C232.974 132.657 233.268 133.483 233.628 134.282C233.832 134.737 234.104 135.159 234.436 135.535C234.554 135.642 234.683 135.747 234.813 135.846C234.986 135.949 235.173 136.03 235.368 136.085C235.64 136.112 235.885 136.111 236.146 136.119C237.874 136.019 239.596 135.825 241.303 135.539L246.303 134.733C249.624 134.154 252.943 133.575 256.249 132.933C262.858 131.634 269.455 130.289 276.041 128.899L276.096 128.887C276.202 128.865 276.298 128.81 276.372 128.732C276.796 128.256 277.035 127.648 277.048 127.016C277.084 126.519 277.082 126.021 277.04 125.525C276.956 124.58 276.818 123.642 276.626 122.713C276.261 120.874 275.788 119.075 275.264 117.294C274.218 113.732 273.025 110.226 271.795 106.735C270.545 103.252 269.286 99.7736 267.991 96.3089L264.069 85.9271L264.078 85.9529C262.581 80.2296 260.636 74.629 258.261 69.2013C257.068 66.4096 255.362 63.8589 253.228 61.6779C252.065 60.628 250.715 59.7996 249.246 59.2349C248.588 58.974 247.951 58.6657 247.339 58.3125C246.626 57.9076 245.851 57.6173 245.045 57.4526C242.064 56.9815 239.058 56.6804 236.042 56.5509C234.567 56.4233 233.098 56.2683 231.655 56.0079C230.209 55.7887 228.787 55.4415 227.404 54.9706C221.792 52.8824 215.954 51.439 210.005 50.6692C209.984 50.6663 209.963 50.6717 209.946 50.6843C209.929 50.6968 209.918 50.7155 209.915 50.7362C209.913 50.7563 209.918 50.7765 209.93 50.7929C209.942 50.8093 209.96 50.8208 209.98 50.825Z" fill="black"/>
<path d="M191.131 67.2245C191.262 67.913 191.295 68.6161 191.23 69.3137C191.187 70.0196 191.141 70.7245 191.072 71.4292L190.634 75.6525C190.318 78.4666 189.943 81.2746 189.594 84.0854L189.038 88.2978C188.687 89.7792 188.917 91.3364 189.682 92.6581C189.933 92.9722 190.245 93.2344 190.6 93.4295C190.955 93.6247 191.345 93.749 191.749 93.7953C192.152 93.8416 192.561 93.8091 192.952 93.6995C193.343 93.5899 193.707 93.4055 194.026 93.1568C194.345 92.9111 194.609 92.6037 194.802 92.2535C194.996 91.9033 195.115 91.5178 195.151 91.1207L195.383 89.0095C195.704 86.1962 196.046 83.384 196.482 80.5874C196.69 79.1907 196.973 77.8059 197.33 76.4386C197.417 76.1056 197.537 75.7818 197.689 75.4719C197.719 75.403 197.765 75.3419 197.823 75.2934C197.881 75.245 197.95 75.2104 198.024 75.1925L198.518 74.9821C199.177 74.7019 199.845 74.4386 200.515 74.1831C203.195 73.1552 205.893 72.1723 208.616 71.2714C209.967 70.8505 211.37 70.2493 212.667 70.6704C213.27 70.9557 213.771 71.4148 214.103 71.9867C214.436 72.5586 214.584 73.2164 214.528 73.873C214.529 73.9473 214.56 74.0181 214.614 74.0698C214.668 74.1215 214.741 74.1499 214.817 74.1488C214.866 74.1476 214.914 74.134 214.957 74.1092C214.999 74.0844 215.035 74.0493 215.06 74.0071C215.814 72.7152 216.663 71.4788 217.599 70.3076C218.505 69.1329 219.564 68.0814 220.75 67.1806C221.33 66.751 221.977 66.4185 222.667 66.1966C223.424 65.961 224.153 65.643 224.838 65.2485C226.237 64.4614 227.418 63.3498 228.281 62.0104C228.292 61.9919 228.302 61.972 228.308 61.9512L228.315 61.9267C228.531 61.1389 228.427 60.2995 228.024 59.5863C227.653 58.9279 227.167 58.3391 226.588 57.8472C225.477 56.9111 224.252 56.1141 222.941 55.4743C220.372 54.1916 217.683 53.158 214.911 52.3883C214.841 52.3683 214.766 52.3697 214.696 52.3925C214.626 52.4152 214.566 52.4582 214.521 52.5157C214.477 52.5733 214.451 52.6426 214.448 52.7147C214.445 52.7868 214.463 52.8583 214.502 52.9196L214.512 52.9364C214.956 53.6737 215.244 54.492 215.358 55.3418C215.423 55.7744 215.459 56.2108 215.464 56.648C215.426 57.0848 215.429 57.5275 215.35 57.9616C215.051 59.724 214.381 61.4053 213.383 62.8976C212.896 63.6574 212.368 64.3914 211.802 65.0965C211.183 65.7603 210.603 66.4613 209.957 67.1032C209.29 67.7237 208.657 68.3836 207.96 68.9747L205.84 70.7215C205.836 70.7246 205.833 70.7284 205.83 70.7328C205.827 70.7373 205.825 70.7422 205.825 70.7473C205.824 70.7524 205.824 70.7576 205.825 70.7627C205.827 70.7677 205.829 70.7724 205.832 70.7766C205.839 70.7847 205.848 70.79 205.859 70.7915C205.869 70.7929 205.88 70.7905 205.888 70.7846L208.089 69.1252C208.816 68.5616 209.482 67.9259 210.183 67.328C210.868 66.7138 211.468 66.0107 212.112 65.3517C212.707 64.6456 213.263 63.9089 213.779 63.1448C214.852 61.6148 215.588 59.881 215.94 58.0544C216.034 57.597 216.044 57.1245 216.094 56.6588C216.099 56.1879 216.072 55.7171 216.013 55.2498C215.907 54.2902 215.599 53.363 215.108 52.5277L214.71 53.0756C217.41 53.8976 220.036 54.9398 222.56 56.1914C223.805 56.8043 224.969 57.5659 226.025 58.4591C226.55 58.8138 226.966 59.3036 227.228 59.875C227.49 60.4465 227.587 61.0778 227.51 61.7001L227.544 61.6167C226.764 62.8342 225.698 63.8497 224.436 64.5781C223.804 64.9503 223.132 65.252 222.432 65.4776C221.668 65.7318 220.951 66.1075 220.31 66.59C219.075 67.5376 217.984 68.6541 217.07 69.9055C216.14 71.1228 215.302 72.4051 214.562 73.7423L215.093 73.8766C215.073 73.1227 214.883 72.3826 214.537 71.71C214.366 71.3617 214.125 71.051 213.829 70.7968C213.533 70.5426 213.187 70.3501 212.814 70.2308C211.26 69.7886 209.818 70.4822 208.489 70.9055C205.771 71.8514 203.086 72.8768 200.419 73.9473L198.42 74.7531L197.921 74.959C197.822 74.9893 197.73 75.0389 197.65 75.1049C197.571 75.1709 197.505 75.252 197.458 75.3433C197.292 75.6693 197.16 76.0108 197.063 76.3628C196.663 77.7382 196.414 79.1365 196.147 80.5313C195.625 83.323 195.198 86.1286 194.796 88.937L194.503 91.0445C194.472 91.3549 194.377 91.6559 194.223 91.9288C194.07 92.2017 193.861 92.4408 193.61 92.6312C193.113 93.0155 192.481 93.1901 191.853 93.117C191.224 93.0439 190.651 92.7289 190.258 92.2409C189.91 91.6886 189.698 91.0639 189.638 90.4165C189.566 89.7385 189.591 89.054 189.711 88.3828L190.219 84.1596C190.558 81.344 190.828 78.5204 191.071 75.6942C191.195 74.2813 191.296 72.8658 191.352 71.4471C191.387 70.7384 191.4 70.0278 191.41 69.3179C191.445 68.6014 191.374 67.8836 191.201 67.1868C191.198 67.1772 191.191 67.1692 191.182 67.1646C191.173 67.1599 191.162 67.159 191.152 67.162C191.142 67.165 191.134 67.1717 191.129 67.1806C191.125 67.1895 191.123 67.2 191.126 67.2097L191.131 67.2245Z" fill="black"/>
<path d="M187.527 58.0965C186.963 58.8812 186.466 59.71 186.041 60.5747C185.828 61.0095 185.674 61.4727 185.487 61.9236C185.334 62.3911 185.221 62.8705 185.15 63.3566C184.973 64.3531 185.056 65.3776 185.393 66.3334C185.771 67.3124 186.49 68.1274 187.421 68.633C187.458 68.6522 187.497 68.6642 187.538 68.6683C187.579 68.6723 187.621 68.6684 187.66 68.6567C187.7 68.645 187.736 68.6258 187.768 68.6002C187.8 68.5745 187.827 68.5429 187.846 68.5072C187.865 68.4726 187.877 68.4348 187.882 68.3957L187.883 68.3849C188.012 67.0114 188.309 65.6583 188.767 64.3548C188.997 63.7112 189.359 63.1212 189.83 62.6215C190.06 62.3953 190.357 62.2457 190.678 62.1938C190.835 62.2132 190.986 62.2633 191.124 62.3412C191.261 62.4191 191.381 62.5233 191.476 62.6476C192.272 63.7779 192.848 65.0441 193.174 66.3815C193.58 67.7064 193.919 69.0614 194.215 70.4083L194.21 70.2795L193.847 72.7371C193.832 72.8427 193.858 72.9502 193.922 73.0368C193.985 73.1234 194.08 73.1823 194.187 73.2011C194.294 73.22 194.404 73.1972 194.494 73.1377C194.584 73.0782 194.647 72.9866 194.669 72.8822L194.671 72.873C194.892 71.7165 195.02 70.5446 195.054 69.3683C195.117 68.2019 195.088 67.038 195.033 65.8781C194.933 63.5609 194.689 61.2518 194.301 58.9641C194.3 58.9537 194.294 58.9445 194.285 58.9384C194.277 58.9323 194.266 58.9298 194.255 58.9315C194.246 58.9332 194.237 58.9383 194.231 58.9458C194.225 58.9533 194.221 58.9628 194.222 58.9724C194.299 61.2841 194.337 63.5904 194.336 65.891C194.367 68.1726 194.206 70.4527 193.852 72.7077L194.676 72.8437L194.967 70.3769L194.968 70.3642C194.973 70.3253 194.97 70.2859 194.961 70.2477C194.628 68.8758 194.212 67.5245 193.717 66.201C193.263 64.8468 192.576 63.5792 191.688 62.453C191.563 62.303 191.409 62.1795 191.234 62.0903C191.06 62.0011 190.868 61.9481 190.672 61.9344C190.29 61.9954 189.937 62.1745 189.664 62.4459C189.148 62.9553 188.744 63.5647 188.478 64.2356C187.904 65.5389 187.488 66.9043 187.239 68.3036L187.7 68.0556C186.95 67.5895 186.373 66.8972 186.055 66.0819C185.73 65.2375 185.63 64.3255 185.764 63.4323C185.788 62.9757 185.933 62.5288 186.003 62.0708C186.148 61.6285 186.26 61.1724 186.434 60.7354C186.625 60.3059 186.773 59.855 186.976 59.426L187.595 58.1375C187.597 58.1329 187.599 58.1279 187.6 58.1228C187.6 58.1176 187.6 58.1124 187.598 58.1074C187.597 58.1024 187.594 58.0978 187.591 58.0938C187.587 58.0898 187.583 58.0864 187.579 58.084C187.57 58.0798 187.56 58.0788 187.55 58.0811C187.541 58.0833 187.532 58.0888 187.527 58.0965Z" fill="black"/>
<path d="M193.327 76.9012C193.015 76.8906 192.72 76.7614 192.504 76.5408C192.288 76.3202 192.167 76.0254 192.167 75.7187C192.167 75.412 192.288 75.1173 192.504 74.8967C192.72 74.6761 193.015 74.5469 193.327 74.5362C193.638 74.5469 193.933 74.6761 194.149 74.8967C194.366 75.1173 194.487 75.412 194.487 75.7187C194.487 76.0254 194.366 76.3202 194.149 76.5408C193.933 76.7614 193.638 76.8906 193.327 76.9012Z" fill="black"/>
<path d="M192.461 83.4314C192.15 83.4208 191.855 83.2915 191.638 83.0709C191.422 82.8503 191.301 82.5556 191.301 82.2489C191.301 81.9422 191.422 81.6475 191.638 81.4269C191.855 81.2063 192.15 81.077 192.461 81.0664C192.772 81.077 193.067 81.2063 193.284 81.4269C193.5 81.6475 193.621 81.9422 193.621 82.2489C193.621 82.5556 193.5 82.8503 193.284 83.0709C193.067 83.2915 192.772 83.4208 192.461 83.4314Z" fill="black"/>
<path d="M191.741 89.6743C191.43 89.6637 191.135 89.5345 190.918 89.3139C190.702 89.0933 190.581 88.7986 190.581 88.4918C190.581 88.1851 190.702 87.8904 190.918 87.6697C191.135 87.4491 191.43 87.3199 191.741 87.3093C192.052 87.3199 192.347 87.4491 192.564 87.6697C192.78 87.8904 192.901 88.1851 192.901 88.4918C192.901 88.7986 192.78 89.0933 192.564 89.3139C192.347 89.5345 192.052 89.6637 191.741 89.6743Z" fill="black"/>
<path d="M184.082 55.8758C179.281 55.9934 174.487 56.307 169.705 56.7912C167.312 57.0194 164.929 57.3497 162.553 57.7478C160.136 58.0796 157.771 58.7134 155.516 59.6339C155.221 59.7782 154.944 59.9566 154.691 60.1652C154.458 60.3726 154.238 60.5933 154.031 60.8262C153.634 61.2489 153.202 61.6533 152.773 62.07C151.885 62.8991 151.083 63.8138 150.381 64.8003C149.037 66.8075 148.039 69.0193 147.427 71.3467C146.22 75.9383 145.473 80.635 145.194 85.3698C145.776 80.6895 146.719 76.0596 148.016 71.5207C148.672 69.2815 149.671 67.154 150.978 65.2113C151.664 64.2694 152.444 63.3976 153.307 62.6093C153.736 62.2011 154.178 61.7956 154.601 61.3557C154.95 60.9276 155.389 60.5783 155.887 60.3313C158.063 59.4282 160.346 58.797 162.682 58.4526C165.03 58.0234 167.404 57.7119 169.777 57.3907C174.528 56.783 179.302 56.3179 184.082 55.8758Z" fill="black"/>
<path d="M249.963 65.8753C247.75 65.4141 245.445 65.6764 243.398 66.6224C241.345 67.5928 239.592 69.084 238.318 70.9427C237.682 71.8568 237.127 72.8237 236.661 73.8323C236.22 74.8432 235.834 75.8765 235.505 76.928C235.264 78 234.966 79.0569 234.776 80.1319C234.65 81.2197 234.499 82.2995 234.4 83.3815C234.679 82.3238 234.906 81.2639 235.16 80.212C235.425 79.1641 235.786 78.1421 236.091 77.1111C236.501 76.1168 236.863 75.1023 237.321 74.136C237.791 73.1779 238.344 72.2611 238.972 71.3957C240.151 69.6195 241.766 68.1644 243.667 67.1647C245.602 66.1639 247.783 65.7172 249.963 65.8753Z" fill="black"/>
<path d="M221.524 115.734C220.972 117.181 220.39 118.612 219.714 120.002C219.075 121.407 218.372 122.782 217.628 124.132C216.156 126.837 214.473 129.426 212.595 131.875C210.744 134.338 208.638 136.606 206.311 138.641L204.535 140.134C203.926 140.612 203.269 141.026 202.639 141.479L201.691 142.158C201.363 142.365 201.019 142.548 200.684 142.745L198.659 143.924C201.564 142.705 204.276 141.081 206.711 139.102C209.139 137.103 211.327 134.837 213.233 132.349C215.113 129.85 216.766 127.193 218.173 124.409C219.583 121.636 220.706 118.729 221.524 115.734Z" fill="black"/>
<path d="M271.546 129.101C271.581 133.816 271.686 138.528 271.764 143.241C271.829 147.955 271.991 152.665 272.1 157.378L272.104 157.418L272.11 157.461C272.403 159.344 272.159 161.27 271.405 163.025C270.605 164.72 269.17 166.045 267.401 166.721C266.946 166.866 266.5 167.035 266.041 167.167L264.614 167.438C263.627 167.582 262.608 167.687 261.601 167.795C259.58 168.007 257.555 168.195 255.526 168.36C247.415 169.032 239.277 169.376 231.143 169.555C223.013 169.74 214.879 169.475 206.779 168.762C198.73 167.997 190.555 166.783 183.242 163.334C183.171 163.301 183.089 163.294 183.013 163.316C182.937 163.338 182.872 163.386 182.83 163.452C182.254 164.336 181.455 165.059 180.512 165.55C179.55 166.05 178.487 166.334 177.4 166.382C176.298 166.423 175.196 166.308 174.126 166.042C173.596 165.888 173.064 165.729 172.536 165.557L170.992 164.926L172.502 165.641C173.021 165.843 173.548 166.033 174.077 166.217C175.156 166.55 176.281 166.718 177.412 166.716C178.574 166.731 179.722 166.469 180.758 165.953C181.795 165.437 182.689 164.681 183.365 163.751L182.953 163.869C186.607 165.744 190.496 167.136 194.52 168.01C198.518 168.914 202.566 169.591 206.643 170.039C214.789 170.858 222.977 171.203 231.164 171.071C239.345 171.019 247.511 170.508 255.654 169.793C257.69 169.611 259.725 169.405 261.757 169.175C262.776 169.056 263.786 168.944 264.815 168.787L266.389 168.473C266.906 168.322 267.415 168.128 267.926 167.955C269.99 167.121 271.64 165.526 272.524 163.509C273.328 161.525 273.548 159.357 273.158 157.255L273.168 157.338C272.915 152.631 272.714 147.922 272.416 143.217C272.131 138.512 271.874 133.805 271.546 129.101Z" fill="black"/>
<path d="M241.889 134.638C241.756 137.23 241.681 139.822 241.589 142.413L241.77 142.143C232.51 145.411 222.79 147.238 212.958 147.555C208.071 147.702 203.182 147.324 198.377 146.431L194.8 145.669C193.618 145.373 192.472 144.955 191.305 144.605L189.557 144.067C188.987 143.854 188.433 143.6 187.87 143.368L184.498 141.946L184.784 142.372C184.652 141.584 184.338 140.838 183.867 140.189C183.43 139.559 182.884 139.01 182.256 138.565C181.027 137.708 179.615 137.14 178.129 136.905C177.406 136.781 176.678 136.694 175.946 136.644C175.217 136.645 174.489 136.582 173.764 136.635C173.04 136.694 172.314 136.694 171.598 136.802L169.455 137.116L171.613 136.997C172.331 136.961 173.05 136.994 173.765 136.988C174.481 136.984 175.191 137.094 175.9 137.141C176.601 137.236 177.297 137.367 177.985 137.533C179.335 137.85 180.603 138.438 181.711 139.26C182.764 140.038 183.48 141.179 183.716 142.455L183.721 142.49C183.732 142.573 183.764 142.651 183.813 142.719C183.862 142.787 183.927 142.843 184.002 142.881C188.431 145.198 193.17 146.888 198.078 147.903C202.988 148.882 207.998 149.283 213.004 149.098C217.992 148.918 222.953 148.283 227.821 147.2C230.246 146.641 232.652 146.009 235.02 145.261C237.401 144.546 239.735 143.685 242.008 142.684L242.022 142.678C242.073 142.655 242.116 142.617 242.146 142.57C242.176 142.523 242.191 142.468 242.189 142.413C242.097 139.822 242.022 137.23 241.889 134.638Z" fill="black"/>
<path d="M265.139 148.382C263.885 146.68 262.284 145.253 260.44 144.191C258.594 143.115 256.596 142.315 254.511 141.818C253.462 141.609 252.402 141.463 251.335 141.382C250.272 141.279 249.204 141.262 248.139 141.331C247.074 141.354 246.024 141.566 244.972 141.677C243.935 141.897 242.905 142.145 241.888 142.412C242.944 142.32 243.98 142.149 245.024 142.061C246.071 142.028 247.111 141.886 248.154 141.937C250.232 141.928 252.304 142.145 254.333 142.586C256.354 143.039 258.306 143.755 260.136 144.715C261.991 145.667 263.681 146.905 265.139 148.382Z" fill="black"/>
<path d="M184.247 142.411C183.928 143.098 183.55 143.756 183.117 144.379C182.709 144.989 182.184 145.515 181.571 145.927C181.42 146.016 181.261 146.092 181.097 146.154C180.873 146.237 180.671 146.367 180.505 146.536C180.357 146.726 180.26 146.948 180.221 147.184C180.182 147.42 180.204 147.661 180.283 147.887C180.546 148.658 180.971 149.365 181.532 149.961L181.536 149.965L181.559 149.987C182.157 150.542 182.607 151.233 182.871 152C182.992 152.361 183.03 152.745 182.982 153.123C182.934 153.5 182.8 153.863 182.591 154.183C182.203 154.805 181.351 155.411 181.024 156.365C180.923 156.612 180.878 156.877 180.892 157.142C180.905 157.407 180.978 157.667 181.104 157.902C181.378 158.336 181.791 158.669 182.278 158.849L182.171 158.776C182.801 159.432 183.283 160.211 183.585 161.064C183.731 161.489 183.776 161.942 183.716 162.387C183.615 162.837 183.401 163.254 183.094 163.602C183.47 163.294 183.751 162.888 183.903 162.431C184.025 161.954 184.033 161.457 183.927 160.977C183.825 160.5 183.649 160.041 183.407 159.616C183.176 159.185 182.902 158.778 182.591 158.4C182.572 158.377 182.549 158.359 182.522 158.346L182.483 158.327C182.145 158.172 181.865 157.915 181.685 157.593C181.613 157.437 181.576 157.269 181.576 157.098C181.575 156.927 181.612 156.758 181.682 156.601C181.943 155.865 182.647 155.408 183.231 154.588C183.514 154.179 183.699 153.712 183.771 153.222C183.828 152.732 183.774 152.236 183.614 151.768C183.292 150.88 182.749 150.085 182.035 149.456L182.062 149.482C181.567 148.968 181.175 148.366 180.907 147.708C180.845 147.58 180.816 147.439 180.822 147.297C180.828 147.155 180.87 147.017 180.944 146.895C181.042 146.787 181.162 146.7 181.297 146.639C181.486 146.552 181.667 146.45 181.839 146.333C182.481 145.855 183.003 145.239 183.364 144.53C183.738 143.859 184.034 143.148 184.247 142.411Z" fill="black"/>
<path d="M169.931 143.209C169.955 143.689 169.979 144.162 170.003 144.635C170.971 144.628 171.948 144.588 172.917 144.486C174.057 144.395 175.187 144.207 176.295 143.926C175.187 143.644 174.057 143.457 172.917 143.366C171.924 143.264 170.923 143.224 169.931 143.209Z" fill="black"/>
<path d="M170.187 148.514C170.219 148.995 170.235 149.467 170.259 149.933C171.148 149.917 172.028 149.877 172.917 149.783C174.057 149.692 175.187 149.504 176.295 149.223C175.187 148.942 174.057 148.754 172.917 148.663C172.004 148.569 171.1 148.529 170.187 148.514Z" fill="black"/>
<path d="M170.427 153.619C170.443 154.1 170.467 154.573 170.483 155.038C171.292 155.015 172.108 154.975 172.917 154.889C174.057 154.798 175.187 154.61 176.295 154.329C175.187 154.047 174.057 153.86 172.917 153.769C172.084 153.682 171.252 153.643 170.427 153.619Z" fill="black"/>
<path d="M172.917 159.871C172.164 159.792 171.412 159.753 170.667 159.729C170.691 160.21 170.707 160.675 170.723 161.125C171.452 161.109 172.188 161.07 172.917 160.991C174.057 160.9 175.187 160.712 176.295 160.431C175.187 160.15 174.057 159.962 172.917 159.871Z" fill="black"/>
<path d="M197.597 171.607C197.597 171.607 212.02 157.57 217.405 166.673C222.791 175.776 219.089 182.453 215.088 186.959C210.213 192.449 209.968 194.093 208.522 195.719C207.076 197.344 190.75 216.999 170.401 215.894C158.531 215.25 158.733 209.021 160.962 203.943C162.583 200.346 165.187 197.263 168.483 195.038C174.983 190.564 189.509 180.205 197.597 171.607Z" fill="black"/>
<path d="M202.518 167.594C199.416 167.738 196.322 167.944 193.229 168.143L183.953 168.762C180.864 169.004 177.772 169.18 174.681 169.342C173.136 169.436 171.589 169.491 170.044 169.516C169.273 169.515 168.495 169.57 167.726 169.514L166.568 169.46L165.422 169.282C168.474 169.892 171.592 170.116 174.701 169.948C177.809 169.911 180.909 169.728 184.008 169.548C187.102 169.309 190.196 169.07 193.281 168.744C196.367 168.419 199.449 168.062 202.518 167.594Z" fill="black"/>
<path d="M171.651 193.224C171.738 193.224 171.824 193.195 171.894 193.143C171.963 193.091 172.014 193.017 172.037 192.934C172.06 192.85 172.055 192.762 172.022 192.681C171.989 192.601 171.93 192.534 171.855 192.49C171.228 192.126 156.445 183.579 150.913 185.356C150.813 185.389 150.73 185.46 150.682 185.553C150.635 185.646 150.627 185.754 150.66 185.853C150.693 185.952 150.764 186.034 150.859 186.081C150.953 186.129 151.062 186.137 151.163 186.105C156.349 184.432 171.297 193.081 171.447 193.169C171.509 193.205 171.579 193.224 171.651 193.224Z" fill="black"/>
<path d="M83.2615 135.269L83.2536 135.269L83.2249 135.274L48.3537 147.999L48.3231 148.012C44.8564 149.608 41.5582 151.537 38.4768 153.771C35.364 156.008 32.6222 158.707 30.3488 161.771C29.1788 163.316 28.2596 165.031 27.6243 166.854C27.0114 168.65 26.5317 170.487 26.189 172.352C25.4114 176.141 25.6799 180.067 26.9665 183.719C27.6879 185.537 28.748 187.206 30.0921 188.641C31.4461 190.053 33.0276 191.237 34.7727 192.142C36.5057 193.043 38.3533 193.711 40.2663 194.129C41.2179 194.327 42.1807 194.468 43.1495 194.551L45.9793 194.855C53.5253 195.649 61.0689 196.457 68.6217 197.18C83.7263 198.636 98.8349 200.062 113.977 201.159C117.762 201.437 121.549 201.698 125.341 201.911C129.14 202.098 132.91 202.359 136.773 202.191C138.756 202.031 140.642 201.276 142.175 200.027C143.682 198.83 145.006 197.427 146.109 195.86C148.287 192.756 150.041 189.384 151.324 185.829C151.342 185.782 151.347 185.732 151.339 185.682C151.332 185.633 151.312 185.586 151.281 185.546C151.25 185.507 151.21 185.475 151.163 185.455C151.117 185.435 151.066 185.426 151.016 185.43L151.005 185.431C149.384 185.637 147.742 185.632 146.122 185.416C145.361 185.272 144.554 184.971 144.333 184.335C144.197 183.598 144.344 182.838 144.748 182.202C145.544 180.787 146.475 179.449 147.529 178.208C148.56 176.932 149.628 175.678 150.686 174.416C151.745 173.154 152.798 171.883 153.816 170.585C154.782 169.28 155.949 168.132 157.275 167.183C157.897 166.695 158.626 166.359 159.405 166.203C160.183 166.046 160.989 166.072 161.755 166.281C163.244 166.872 164.46 167.985 165.168 169.405L165.177 169.42C165.203 169.467 165.242 169.506 165.29 169.531C165.339 169.556 165.393 169.567 165.447 169.561C165.502 169.556 165.553 169.535 165.595 169.502C165.637 169.468 165.669 169.422 165.685 169.371C166.208 167.783 166.482 166.126 166.496 164.457C166.5 163.606 166.364 162.76 166.092 161.952C165.81 161.113 165.275 160.378 164.558 159.846L164.599 159.88C163.943 159.315 163.189 158.869 162.374 158.563C161.599 158.245 160.808 157.967 160.004 157.729C158.405 157.248 156.788 156.858 155.164 156.503C151.916 155.801 148.644 155.24 145.366 154.728C138.808 153.715 132.224 152.913 125.633 152.184C112.449 150.729 99.2404 149.572 86.0078 148.613L86.5828 149.152C85.7487 143.963 84.6676 138.954 83.6457 133.87L80.4657 118.686L74.0753 88.3241L73.7796 89.118C74.4945 88.727 75.2687 88.4521 76.0725 88.3038C76.9468 88.107 77.8441 87.9443 78.7522 87.8139C80.5656 87.5432 82.4073 87.3588 84.2502 87.1969C87.9395 86.8775 91.6502 86.6891 95.3615 86.5235C102.787 86.199 110.227 86.0484 117.668 85.962C132.55 85.7922 147.444 85.9207 162.327 86.1237L161.788 85.891C162.285 86.5033 162.668 87.1966 162.922 87.9394C163.226 88.7289 163.482 89.5541 163.712 90.3898C164.169 92.0638 164.527 93.7805 164.85 95.5037C165.487 98.9546 165.972 102.445 166.4 105.941C167.247 112.937 167.861 119.968 168.392 127.005C168.916 134.044 169.356 141.089 169.711 148.141C170.106 155.182 170.368 162.244 170.637 169.294L170.637 169.301C170.641 169.391 170.68 169.477 170.747 169.539C170.814 169.601 170.903 169.634 170.995 169.632L201.509 168.851C201.53 168.851 201.55 168.842 201.564 168.827C201.579 168.812 201.587 168.792 201.586 168.771C201.586 168.75 201.577 168.731 201.562 168.716C201.547 168.702 201.527 168.694 201.506 168.694L170.983 168.938L171.341 169.276C171.159 162.21 170.953 155.156 170.629 148.092C170.34 141.041 169.968 133.986 169.514 126.928C169.051 119.876 168.504 112.827 167.722 105.791C167.326 102.274 166.873 98.7592 166.261 95.256C165.95 93.5049 165.604 91.7562 165.147 90.0156C164.916 89.1455 164.658 88.2774 164.334 87.413C164.022 86.4762 163.535 85.6052 162.897 84.8446C162.834 84.774 162.756 84.7169 162.669 84.677C162.582 84.6371 162.488 84.6152 162.392 84.6125L162.359 84.6117C154.906 84.4221 147.458 84.3548 140.006 84.3007C132.555 84.2541 125.103 84.2622 117.65 84.325C110.197 84.3996 102.743 84.5385 95.2865 84.8523C91.5583 85.0168 87.8306 85.2339 84.1015 85.5684C82.2365 85.7401 80.372 85.9341 78.5045 86.2206C77.5706 86.3589 76.6359 86.531 75.6963 86.7469C74.6674 86.9396 73.6833 87.3172 72.7932 87.8608C72.6726 87.9404 72.5789 88.0538 72.5242 88.1862C72.4695 88.3187 72.4563 88.4643 72.4862 88.6042L72.4973 88.6551L79.0159 118.982L82.2907 134.143C83.3549 139.185 84.4971 144.282 85.3521 149.292L85.3575 149.325C85.3807 149.46 85.4496 149.583 85.5529 149.675C85.6563 149.767 85.7881 149.822 85.9271 149.831C99.1446 150.669 112.36 151.706 125.538 153.042C132.125 153.728 138.706 154.487 145.252 155.456C148.523 155.946 151.788 156.484 155.019 157.161C156.633 157.503 158.239 157.88 159.813 158.344C160.598 158.57 161.371 158.835 162.127 159.14C162.866 159.411 163.551 159.805 164.154 160.306L164.165 160.316L164.195 160.341C164.814 160.798 165.277 161.43 165.522 162.153C165.776 162.898 165.906 163.679 165.906 164.465C165.9 166.07 165.647 167.665 165.155 169.195L165.671 169.162C164.891 167.616 163.553 166.413 161.92 165.787C161.078 165.559 160.193 165.53 159.337 165.703C158.481 165.875 157.679 166.244 156.995 166.78C155.637 167.77 154.435 168.951 153.427 170.287C152.408 171.574 151.353 172.835 150.289 174.091C149.226 175.347 148.151 176.596 147.107 177.876C146.021 179.143 145.062 180.508 144.242 181.955C143.759 182.723 143.597 183.645 143.791 184.528C143.969 184.979 144.31 185.348 144.748 185.566C145.145 185.765 145.569 185.906 146.007 185.985C147.683 186.22 149.383 186.236 151.064 186.032L150.745 185.634C149.473 189.126 147.721 192.429 145.536 195.45C144.456 196.946 143.166 198.283 141.703 199.419C140.281 200.557 138.537 201.234 136.709 201.36C132.988 201.478 129.173 201.177 125.403 200.944C121.623 200.688 117.844 200.384 114.066 200.063C98.9584 198.744 83.8576 197.318 68.7636 195.786L46.1227 193.524C44.2492 193.3 42.3085 193.213 40.5502 192.848C38.7527 192.463 37.0154 191.844 35.3846 191.006C32.0934 189.381 29.5162 186.631 28.1352 183.271C26.9146 179.828 26.6518 176.126 27.3739 172.549C27.6945 170.734 28.1433 168.944 28.717 167.191C29.2985 165.469 30.1476 163.847 31.2341 162.382C33.4125 159.379 36.0499 156.726 39.0527 154.518C42.0601 152.287 45.284 150.353 48.6773 148.745L48.6472 148.758L83.282 135.421L83.2536 135.427L83.2616 135.427C83.2828 135.427 83.3032 135.418 83.3182 135.403C83.3332 135.389 83.3416 135.369 83.3416 135.348C83.3416 135.327 83.3332 135.307 83.3182 135.292C83.3032 135.277 83.2828 135.269 83.2616 135.269L83.2615 135.269Z" fill="black"/>
<path d="M162.375 85.2327C168.235 91.76 171.021 169.15 171.021 169.15H165.449C165.449 169.15 167.779 162.355 164.409 159.958C158.284 153.746 85.9998 149.087 85.9998 149.087C85.8397 147.723 84.7588 142.3 83.2859 135.213C79.5551 117.168 73.3185 88.3546 73.3185 88.3546C79.659 83.5299 162.375 85.2327 162.375 85.2327ZM121.45 120.707C128.455 120.707 134.131 119.052 134.131 117.018C134.131 114.984 128.455 113.329 121.45 113.329C114.444 113.329 108.768 114.984 108.768 117.018C108.768 119.052 114.444 120.707 121.45 120.707V120.707Z" fill="black"/>
<path d="M243.118 169.94C244.046 175.375 244.532 180.875 244.571 186.387C244.659 191.881 244.125 197.367 242.979 202.745C241.754 208.051 239.63 213.293 235.896 217.267C233.99 219.215 231.779 220.849 229.348 222.109L227.533 223.103C226.924 223.429 226.284 223.705 225.662 224.008C224.412 224.608 223.158 225.201 221.866 225.721C216.751 227.904 211.493 229.789 206.186 231.523C200.884 233.271 195.53 234.875 190.159 236.423C179.422 239.558 168.582 242.289 157.712 245.021C154.928 245.75 152.321 247.02 150.044 248.756C147.766 250.492 145.865 252.659 144.451 255.129C143.752 256.36 143.174 257.653 142.724 258.99C142.312 260.331 142.001 261.699 141.795 263.084L140.416 271.25C138.519 282.128 136.683 293.016 134.711 303.881L122.865 369.069L123.42 368.597C115.151 368.715 106.86 368.607 98.6065 368.172C94.4801 367.955 90.3582 367.649 86.2797 367.121C84.2509 366.865 82.2368 366.506 80.2455 366.046C79.27 365.819 78.3103 365.531 77.3723 365.184C76.5057 364.888 75.7077 364.425 75.0246 363.822L75.2275 364.371C75.8166 350.411 76.522 336.449 77.2565 322.493C78.0005 308.536 78.9197 294.591 79.8485 280.647C80.8199 266.706 81.9334 252.772 83.465 238.884C84.2323 231.94 85.1324 225.011 86.2616 218.119C86.8365 214.677 87.4736 211.24 88.33 207.858C88.7432 206.164 89.2597 204.497 89.8769 202.865C90.1848 202.053 90.5631 201.268 91.0075 200.52C91.194 200.137 91.4554 199.794 91.7768 199.511C92.0981 199.228 92.4731 199.01 92.8801 198.869L92.8867 198.868C92.9074 198.864 92.9256 198.852 92.9373 198.835C92.949 198.817 92.9533 198.796 92.9492 198.776C92.9451 198.755 92.933 198.737 92.9154 198.726C92.8979 198.714 92.8765 198.71 92.8557 198.714C92.4194 198.848 92.0148 199.067 91.6655 199.357C91.3162 199.648 91.0292 200.004 90.8213 200.405C90.3517 201.155 89.9488 201.944 89.617 202.763C88.9575 204.393 88.3986 206.061 87.9432 207.758C87.0045 211.139 86.2871 214.571 85.6313 218.011C84.3367 224.896 83.4062 231.836 82.5356 238.778C80.8315 252.668 79.5463 266.601 78.4035 280.541C77.2369 294.481 76.3995 308.443 75.5964 322.404C74.7939 336.367 74.1462 350.337 73.6531 364.314L73.6523 364.339C73.6489 364.435 73.6653 364.532 73.7003 364.622C73.7354 364.712 73.7884 364.794 73.8563 364.863C74.7028 365.646 75.7083 366.243 76.8065 366.615C77.8104 366.982 78.8373 367.285 79.8809 367.521C81.9281 367.984 83.9983 368.342 86.0831 368.594C90.2285 369.11 94.3819 369.395 98.5347 369.591C106.843 369.939 115.144 369.949 123.451 369.737C123.585 369.734 123.713 369.685 123.814 369.599C123.916 369.513 123.984 369.395 124.007 369.265L135.233 303.971C137.107 293.089 139.116 282.23 141.064 271.361L142.57 263.217C142.79 261.874 143.112 260.55 143.531 259.254C143.983 257.978 144.557 256.747 145.245 255.577C146.625 253.245 148.464 251.208 150.655 249.586C152.846 247.964 155.344 246.789 158.003 246.131C168.904 243.613 179.782 240.844 190.559 237.772C195.953 236.249 201.303 234.566 206.622 232.793C211.942 231.021 217.217 229.096 222.374 226.861C223.674 226.329 224.943 225.72 226.208 225.103C226.839 224.792 227.483 224.509 228.104 224.173L229.955 223.145C232.485 221.814 234.773 220.079 236.725 218.011C240.589 213.771 242.671 208.343 243.841 202.932C244.941 197.484 245.375 191.926 245.135 186.376C244.961 180.847 244.339 175.341 243.274 169.909C243.27 169.888 243.258 169.87 243.241 169.859C243.223 169.847 243.201 169.843 243.181 169.847C243.16 169.851 243.142 169.864 243.13 169.881C243.118 169.898 243.114 169.92 243.118 169.94Z" fill="black"/>
<path d="M110.466 379.241C110.466 379.241 117.383 378.531 117.383 381.795C117.383 385.059 116.807 408.898 113.924 409.607C111.042 410.317 26.597 438.98 4.1167 415.709C4.1167 415.709 -11.4466 407.195 17.9507 397.262C47.3481 387.329 65.7935 377.396 65.7935 377.396C65.7935 377.396 93.7498 378.247 94.3262 381.085C94.9026 383.923 90.5795 394.14 90.5795 394.14C90.5795 394.14 109.025 398.397 110.466 379.241Z" fill="black"/>
<path d="M110.464 379.637C110.498 379.637 110.531 379.633 110.563 379.625C110.666 379.599 110.754 379.533 110.809 379.443C110.863 379.353 110.878 379.245 110.852 379.144C110.471 377.504 110.423 375.806 110.71 374.148C110.996 372.49 111.612 370.903 112.522 369.479C112.552 369.437 112.573 369.389 112.584 369.338C112.596 369.288 112.597 369.235 112.588 369.185C112.578 369.134 112.559 369.085 112.531 369.041C112.503 368.998 112.466 368.96 112.423 368.93C112.38 368.901 112.331 368.88 112.28 368.868C112.228 368.857 112.175 368.856 112.124 368.865C112.072 368.874 112.022 368.893 111.978 368.921C111.934 368.949 111.896 368.985 111.865 369.028C110.878 370.54 110.211 372.233 109.903 374.005C109.596 375.777 109.655 377.592 110.077 379.341C110.099 379.426 110.149 379.501 110.219 379.554C110.289 379.608 110.375 379.637 110.464 379.637Z" fill="black"/>
<path d="M69.2553 377.789L69.269 377.787C77.9815 377.501 86.4994 368.552 86.8575 368.172C86.8933 368.134 86.9211 368.089 86.9394 368.041C86.9577 367.992 86.9661 367.94 86.9642 367.889C86.9622 367.837 86.95 367.786 86.9281 367.739C86.9061 367.692 86.875 367.65 86.8365 367.614C86.798 367.579 86.7528 367.552 86.7035 367.534C86.6542 367.516 86.6018 367.507 86.5492 367.509C86.4967 367.511 86.445 367.523 86.3972 367.545C86.3494 367.566 86.3064 367.597 86.2706 367.635C86.1849 367.727 77.6188 376.724 69.2417 377C69.1368 377.004 69.0375 377.048 68.9652 377.123C68.8929 377.198 68.8534 377.298 68.8552 377.401C68.857 377.504 68.8999 377.603 68.9748 377.675C69.0496 377.748 69.1504 377.788 69.2553 377.788V377.789Z" fill="black"/>
<path d="M270.201 165.749C270.259 165.738 270.317 165.738 270.374 165.726L270.443 165.658C270.361 165.683 270.28 165.714 270.201 165.749Z" fill="white"/>
<path d="M244.88 192.773V192.842C244.845 192.636 244.81 192.441 244.775 192.236C244.81 192.419 244.845 192.59 244.88 192.773Z" fill="white"/>
<path d="M85.0235 222.808V222.83C85.0698 222.842 85.1049 222.853 85.1512 222.865C85.1049 222.842 85.0698 222.83 85.0235 222.808Z" fill="white"/>
<path d="M281.831 231.235L280.463 254.938L279.214 278.646C278.788 286.548 278.224 294.445 278.085 302.358C278.024 306.315 277.962 310.271 278.005 314.232L278.071 320.172C278.141 322.154 278.167 324.134 278.277 326.118C278.279 326.147 278.291 326.175 278.313 326.196C278.334 326.217 278.363 326.229 278.393 326.23C278.423 326.231 278.452 326.221 278.475 326.202C278.498 326.183 278.513 326.156 278.517 326.127C278.775 324.157 278.948 322.183 279.167 320.212L279.678 314.292C280.016 310.346 280.251 306.395 280.485 302.445C280.939 294.544 280.968 286.627 281.134 278.716L281.663 254.982L282.072 231.244C282.072 231.213 282.06 231.183 282.039 231.161C282.017 231.138 281.987 231.125 281.956 231.124C281.924 231.123 281.894 231.134 281.871 231.154C281.847 231.175 281.833 231.204 281.831 231.235V231.235Z" fill="black"/>
<path d="M216.407 276.078L215.734 300.217L215.182 324.357C214.988 332.403 214.656 340.449 214.749 348.497C214.804 352.522 214.859 356.546 215.017 360.571L215.258 366.609C215.386 368.622 215.47 370.635 215.638 372.648C215.64 372.678 215.654 372.705 215.676 372.726C215.698 372.746 215.727 372.757 215.757 372.757C215.787 372.757 215.816 372.747 215.839 372.727C215.861 372.707 215.875 372.68 215.878 372.65C216.078 370.64 216.194 368.628 216.354 366.618L216.691 360.584C216.914 356.562 217.032 352.539 217.151 348.516C217.372 340.47 217.169 332.42 217.103 324.372L216.935 300.226L216.647 276.08C216.646 276.049 216.634 276.02 216.611 275.998C216.589 275.976 216.559 275.964 216.528 275.963C216.496 275.963 216.466 275.975 216.443 275.997C216.421 276.018 216.407 276.047 216.407 276.078L216.407 276.078Z" fill="black"/>
<path d="M278.397 326.256C272.773 326.256 268.213 325.409 268.213 324.364C268.213 323.319 272.773 322.472 278.397 322.472C284.021 322.472 288.58 323.319 288.58 324.364C288.58 325.409 284.021 326.256 278.397 326.256Z" fill="black"/>
<path d="M216.144 373.036C210.52 373.036 205.961 372.189 205.961 371.144C205.961 370.099 210.52 369.252 216.144 369.252C221.768 369.252 226.328 370.099 226.328 371.144C226.328 372.189 221.768 373.036 216.144 373.036Z" fill="black"/>
<path d="M148.417 260.468L147.522 271.542L146.746 282.621C146.503 286.314 146.053 290 146.091 293.704C146.063 297.425 146.285 301.143 146.755 304.835C146.759 304.863 146.773 304.889 146.794 304.908C146.815 304.927 146.843 304.937 146.871 304.939C146.9 304.94 146.928 304.931 146.951 304.913C146.974 304.896 146.989 304.871 146.995 304.844C147.74 301.196 148.24 297.504 148.491 293.791C148.805 290.1 148.632 286.392 148.666 282.691L148.722 271.586L148.657 260.477C148.657 260.446 148.645 260.417 148.623 260.395C148.602 260.373 148.573 260.36 148.542 260.359C148.511 260.358 148.48 260.369 148.457 260.389C148.434 260.409 148.42 260.438 148.417 260.468Z" fill="black"/>
<path d="M58.969 235.108L58.2987 258.965L57.7485 282.823C57.5555 290.775 57.2243 298.727 57.3185 306.682C57.3733 310.659 57.4284 314.637 57.5873 318.615L57.8288 324.582C57.9573 326.572 58.0408 328.561 58.2093 330.551C58.2118 330.58 58.2254 330.608 58.2474 330.628C58.2695 330.648 58.2984 330.66 58.3285 330.66C58.3586 330.66 58.3876 330.649 58.41 330.629C58.4324 330.61 58.4464 330.582 58.4494 330.553C58.6495 328.566 58.7647 326.578 58.9247 324.591L59.2616 318.628C59.4835 314.653 59.6018 310.676 59.7202 306.7C59.9407 298.748 59.7363 290.792 59.6699 282.838L59.4994 258.974L59.2091 235.11C59.2088 235.079 59.1961 235.049 59.1738 235.027C59.1515 235.005 59.1214 234.993 59.09 234.993C59.0585 234.992 59.0282 235.004 59.0056 235.026C58.9829 235.047 58.9698 235.077 58.969 235.108V235.108Z" fill="black"/>
<path d="M146.875 304.971C141.251 304.971 136.692 304.124 136.692 303.079C136.692 302.034 141.251 301.187 146.875 301.187C152.499 301.187 157.058 302.034 157.058 303.079C157.058 304.124 152.499 304.971 146.875 304.971Z" fill="black"/>
<path d="M58.7117 330.934C53.0876 330.934 48.5283 330.087 48.5283 329.042C48.5283 327.997 53.0876 327.15 58.7117 327.15C64.3359 327.15 68.8951 327.997 68.8951 329.042C68.8951 330.087 64.3359 330.934 58.7117 330.934Z" fill="black"/>
<path d="M165.421 169.679H170.99C171.096 169.678 171.198 169.636 171.272 169.562C171.347 169.489 171.389 169.388 171.389 169.284C171.389 169.18 171.347 169.08 171.272 169.006C171.198 168.932 171.096 168.89 170.99 168.89H165.421C165.315 168.89 165.214 168.932 165.139 169.006C165.064 169.08 165.022 169.18 165.022 169.284C165.022 169.388 165.064 169.489 165.139 169.562C165.214 169.636 165.315 169.678 165.421 169.679Z" fill="black"/>
</svg>
