<svg width="32" height="32" viewBox="0 0 32 32" fill="none" xmlns="http://www.w3.org/2000/svg">
<g clip-path="url(#clip0_1165_2921)">
<path d="M16.0003 2.66683C19.6229 2.66683 20.0749 2.68017 21.4963 2.74683C22.9163 2.8135 23.883 3.03617 24.7336 3.36684C25.6136 3.70551 26.355 4.16418 27.0963 4.90418C27.7743 5.57071 28.2989 6.37698 28.6337 7.26686C28.963 8.1162 29.187 9.08421 29.2537 10.5042C29.3163 11.9256 29.3337 12.3776 29.3337 16.0003C29.3337 19.6229 29.3203 20.0749 29.2537 21.4963C29.187 22.9163 28.963 23.883 28.6337 24.7336C28.2999 25.624 27.7752 26.4305 27.0963 27.0963C26.4296 27.7741 25.6234 28.2987 24.7336 28.6337C23.8843 28.963 22.9163 29.187 21.4963 29.2537C20.0749 29.3163 19.6229 29.3337 16.0003 29.3337C12.3776 29.3337 11.9256 29.3203 10.5042 29.2537C9.08421 29.187 8.11753 28.963 7.26686 28.6337C6.37663 28.2996 5.57022 27.7749 4.90418 27.0963C4.22605 26.4299 3.70142 25.6236 3.36684 24.7336C3.03617 23.8843 2.8135 22.9163 2.74683 21.4963C2.68417 20.0749 2.66683 19.6229 2.66683 16.0003C2.66683 12.3776 2.68017 11.9256 2.74683 10.5042C2.8135 9.08287 3.03617 8.11753 3.36684 7.26686C3.70049 6.37643 4.22525 5.56995 4.90418 4.90418C5.57041 4.22582 6.37676 3.70115 7.26686 3.36684C8.11753 3.03617 9.08287 2.8135 10.5042 2.74683C11.9256 2.68417 12.3776 2.66683 16.0003 2.66683ZM16.0003 9.33354C14.2321 9.33354 12.5364 10.0359 11.2862 11.2862C10.0359 12.5364 9.33354 14.2321 9.33354 16.0003C9.33354 17.7684 10.0359 19.4641 11.2862 20.7143C12.5364 21.9646 14.2321 22.667 16.0003 22.667C17.7684 22.667 19.4641 21.9646 20.7143 20.7143C21.9646 19.4641 22.667 17.7684 22.667 16.0003C22.667 14.2321 21.9646 12.5364 20.7143 11.2862C19.4641 10.0359 17.7684 9.33354 16.0003 9.33354ZM24.667 9.00021C24.667 8.55818 24.4914 8.13425 24.1788 7.82169C23.8663 7.50913 23.4423 7.33353 23.0003 7.33353C22.5583 7.33353 22.1343 7.50913 21.8218 7.82169C21.5092 8.13425 21.3336 8.55818 21.3336 9.00021C21.3336 9.44224 21.5092 9.86616 21.8218 10.1787C22.1343 10.4913 22.5583 10.6669 23.0003 10.6669C23.4423 10.6669 23.8663 10.4913 24.1788 10.1787C24.4914 9.86616 24.667 9.44224 24.667 9.00021ZM16.0003 12.0002C17.0611 12.0002 18.0785 12.4217 18.8287 13.1718C19.5788 13.922 20.0003 14.9394 20.0003 16.0003C20.0003 17.0611 19.5788 18.0785 18.8287 18.8287C18.0785 19.5788 17.0611 20.0003 16.0003 20.0003C14.9394 20.0003 13.922 19.5788 13.1718 18.8287C12.4217 18.0785 12.0002 17.0611 12.0002 16.0003C12.0002 14.9394 12.4217 13.922 13.1718 13.1718C13.922 12.4217 14.9394 12.0002 16.0003 12.0002Z" fill="#B1B7BE"/>
</g>
<defs>
<clipPath id="clip0_1165_2921">
<rect width="31.1701" height="31.1701" fill="white" transform="scale(1.02663)"/>
</clipPath>
</defs>
</svg>
